<?xml version="1.0" standalone="no"?>
<!DOCTYPE svg PUBLIC "-//W3C//DTD SVG 20010904//EN"
 "http://www.w3.org/TR/2001/REC-SVG-20010904/DTD/svg10.dtd">
<svg version="1.0" xmlns="http://www.w3.org/2000/svg"
 width="512.000000pt" height="512.000000pt" viewBox="0 0 512.000000 512.000000"
 preserveAspectRatio="xMidYMid meet">

<g transform="translate(0.000000,512.000000) scale(0.100000,-0.100000)"
fill="#000000" stroke="none">
<path d="M1435 4805 c-17 -16 -25 -35 -25 -57 1 -18 50 -154 110 -303 l109
-270 -22 -15 c-56 -38 -109 -97 -134 -149 -14 -31 -28 -57 -29 -59 -3 -5 -195
25 -369 58 -227 43 -462 96 -647 145 -92 25 -176 45 -188 45 -30 0 -80 -53
-80 -83 0 -14 11 -39 25 -55 21 -25 47 -35 197 -75 224 -60 583 -137 823 -177
105 -17 200 -33 213 -36 l22 -4 0 -546 c0 -484 -2 -545 -15 -540 -9 3 -64 42
-124 86 -130 95 -156 104 -199 63 -17 -15 -128 -197 -246 -403 -235 -407 -241
-423 -191 -470 13 -13 206 -142 427 -286 l403 -264 1039 0 1038 0 414 271
c228 150 421 281 429 293 20 28 19 59 -4 104 -45 87 -424 739 -439 754 -10 10
-31 20 -48 24 -26 5 -43 -4 -130 -69 -55 -40 -112 -82 -127 -92 l-27 -17 0
116 0 116 103 0 c98 0 105 1 128 26 l24 26 3 402 3 403 72 12 c287 49 817 196
944 262 48 25 54 99 11 139 -31 29 -62 25 -205 -25 -138 -49 -354 -112 -498
-145 -102 -24 -338 -71 -340 -67 -39 88 -57 116 -107 162 -69 64 -140 94 -248
102 l-77 6 105 262 c111 279 114 293 70 335 -21 19 -34 20 -345 20 l-324 0
-24 -25 c-15 -14 -25 -36 -25 -52 0 -16 45 -141 100 -278 55 -137 100 -253
100 -257 0 -4 -261 -8 -579 -8 l-579 0 104 260 c57 143 104 269 104 279 0 11
-12 33 -26 50 l-26 31 -324 0 -325 0 -24 -25z m505 -150 c0 -20 -154 -385
-160 -378 -8 9 -150 364 -150 376 0 4 70 7 155 7 85 0 155 -2 155 -5z m1500 0
c0 -20 -154 -385 -160 -378 -8 9 -150 364 -150 376 0 4 70 7 155 7 85 0 155
-2 155 -5z m-240 -655 c34 -83 138 -80 170 5 8 21 16 25 50 25 l40 0 0 -775
c0 -546 3 -781 11 -798 12 -27 47 -47 82 -47 12 0 89 50 177 115 85 63 155
115 156 115 5 0 334 -578 334 -587 0 -6 -159 -115 -353 -242 l-354 -231 -160
0 -159 0 -17 73 c-82 338 -426 560 -767 493 -251 -49 -457 -242 -519 -488
l-19 -73 -159 -3 -160 -2 -344 225 c-189 125 -350 230 -358 234 -10 6 27 78
154 297 92 159 170 292 173 296 4 3 76 -45 161 -108 173 -127 192 -134 242
-85 l29 29 0 713 c0 703 0 713 21 756 31 63 53 72 88 34 50 -54 124 -37 151
34 l10 25 654 0 654 0 12 -30z m484 -43 c15 -19 26 -37 26 -40 0 -4 -16 -7
-35 -7 -34 0 -35 1 -35 40 0 49 11 50 44 7z m36 -547 l0 -330 -40 0 -40 0 0
324 0 325 28 4 c15 2 33 5 40 6 9 1 12 -71 12 -329z m-1057 -1445 c166 -50
313 -201 343 -352 l7 -33 -481 0 -480 0 12 48 c40 150 160 276 314 329 80 27
210 31 285 8z"/>
<path d="M1885 2742 c-77 -26 -97 -105 -38 -152 24 -18 40 -20 203 -20 163 0
179 2 203 20 56 45 39 130 -31 149 -40 12 -304 13 -337 3z"/>
<path d="M3853 1435 c-17 -8 -36 -22 -42 -34 -7 -12 -11 -86 -11 -186 0 -163
0 -166 25 -190 33 -34 87 -34 120 0 25 24 25 27 25 192 0 184 -5 202 -58 221
-20 7 -37 6 -59 -3z"/>
<path d="M699 1414 c-23 -24 -24 -33 -27 -177 -4 -184 4 -222 54 -243 29 -12
39 -12 68 0 47 20 56 54 56 222 0 188 -14 223 -91 224 -26 0 -42 -7 -60 -26z"/>
<path d="M3155 1242 c-11 -2 -30 -13 -42 -25 -22 -20 -23 -27 -23 -202 0 -176
1 -182 23 -202 12 -11 30 -23 40 -26 24 -9 83 16 96 41 18 33 14 336 -4 371
-15 30 -57 50 -90 43z"/>
<path d="M1499 1214 c-24 -25 -24 -28 -24 -219 0 -191 0 -194 24 -219 34 -36
88 -36 122 0 23 25 24 32 27 192 2 91 1 181 -3 199 -13 72 -97 99 -146 47z"/>
<path d="M1116 945 l-26 -24 0 -206 c0 -205 0 -206 25 -230 36 -37 86 -34 119
6 l26 31 0 195 0 195 -29 29 c-37 37 -78 38 -115 4z"/>
<path d="M3516 845 l-26 -24 0 -231 0 -231 25 -24 c36 -37 86 -34 119 6 l26
31 0 220 0 220 -29 29 c-37 37 -78 38 -115 4z"/>
</g>
</svg>
