<?xml version="1.0" standalone="no"?>
<!DOCTYPE svg PUBLIC "-//W3C//DTD SVG 20010904//EN"
 "http://www.w3.org/TR/2001/REC-SVG-20010904/DTD/svg10.dtd">
<svg version="1.0" xmlns="http://www.w3.org/2000/svg"
 width="611.000000pt" height="388.000000pt" viewBox="0 0 611.000000 388.000000"
 preserveAspectRatio="xMidYMid meet">

<g transform="translate(0.000000,388.000000) scale(0.100000,-0.100000)"
fill="#000000" stroke="none">
<path d="M998 3766 c-47 -17 -90 -52 -120 -98 -27 -41 -93 -315 -82 -342 8
-20 52 -32 72 -19 10 6 28 62 47 149 35 158 44 177 88 204 31 20 67 20 1750
20 l1719 0 29 -21 c38 -27 59 -68 59 -117 0 -21 -18 -121 -40 -223 -22 -101
-52 -238 -66 -304 -14 -66 -27 -122 -29 -125 -2 -4 -43 -186 -90 -406 -47
-219 -115 -534 -151 -699 -36 -165 -94 -433 -129 -595 -35 -162 -72 -335 -83
-385 l-18 -90 -1106 -3 -1106 -2 -16 72 c-28 123 -120 252 -233 327 -113 75
-298 97 -442 52 -93 -28 -162 -72 -226 -142 -64 -71 -99 -135 -123 -229 l-19
-75 -182 -3 c-99 -1 -181 -1 -181 1 0 2 41 124 90 271 98 289 100 306 40 306
-16 0 -32 -6 -37 -12 -4 -7 -35 -94 -69 -193 l-61 -180 -48 -3 c-96 -6 -142
-52 -190 -191 l-32 -91 336 -2 336 -3 7 -65 c19 -192 159 -363 352 -430 306
-105 639 100 687 423 l11 77 1292 -2 1291 -3 7 -60 c21 -194 156 -363 345
-432 290 -105 608 68 687 373 9 34 16 76 16 93 l0 31 289 0 289 0 12 49 c16
69 0 124 -54 177 -22 22 -47 43 -55 45 -11 4 -8 22 17 89 73 201 211 598 221
635 17 62 13 150 -10 217 -22 65 -485 849 -547 926 -45 56 -112 106 -182 134
-53 22 -71 23 -441 28 l-386 5 48 220 c26 121 54 245 61 275 7 30 13 87 13
126 0 61 -4 77 -30 120 -19 30 -49 60 -79 79 l-49 30 -1731 2 c-1409 2 -1738
0 -1768 -11z m4329 -967 c60 -23 139 -89 172 -143 150 -250 464 -782 482 -816
20 -38 24 -60 24 -135 0 -85 -3 -99 -57 -248 -54 -146 -83 -229 -216 -602
l-50 -140 -149 -3 -149 -3 -17 77 c-26 118 -112 242 -218 313 -207 139 -495
110 -668 -67 -74 -75 -115 -148 -140 -249 l-17 -68 -137 -3 c-75 -1 -137 1
-137 6 0 8 159 741 235 1082 19 85 75 344 125 575 50 231 93 426 95 433 3 9
89 12 384 12 364 0 383 -1 438 -21z m-4012 -1715 c123 -31 225 -115 282 -231
31 -63 37 -87 41 -159 7 -136 -31 -238 -124 -331 -96 -97 -241 -145 -367 -123
-256 44 -416 288 -352 535 59 227 296 368 520 309z m3638 1 c83 -21 133 -50
198 -112 136 -130 169 -327 84 -500 -81 -163 -265 -260 -443 -233 -273 42
-438 324 -340 580 78 203 296 318 501 265z"/>
<path d="M4727 2616 c-9 -9 -18 -24 -21 -34 -2 -9 -46 -162 -96 -339 -60 -210
-90 -331 -86 -347 4 -16 15 -26 33 -30 16 -2 199 -4 408 -2 413 2 414 2 483
61 64 54 97 163 72 239 -15 48 -194 364 -223 394 -12 13 -40 34 -62 45 -37 20
-57 22 -266 25 -195 3 -228 1 -242 -12z m492 -123 c20 -21 76 -108 124 -194
93 -167 102 -199 72 -263 -9 -18 -33 -42 -54 -54 -38 -21 -49 -22 -386 -22
-325 0 -346 1 -341 18 3 9 37 130 76 267 39 138 73 258 76 268 5 15 23 17 201
17 l195 0 37 -37z"/>
<path d="M1161 898 c-218 -39 -256 -346 -55 -444 149 -73 324 25 341 190 17
160 -122 284 -286 254z m119 -108 c95 -49 100 -175 9 -243 -117 -87 -276 65
-199 191 42 69 117 89 190 52z"/>
<path d="M4809 901 c-120 -23 -213 -150 -193 -265 20 -122 117 -206 239 -206
135 0 235 103 235 242 0 143 -139 256 -281 229z m106 -105 c38 -16 72 -63 81
-113 9 -49 -26 -114 -77 -142 -123 -70 -263 76 -189 197 40 65 113 88 185 58z"/>
<path d="M241 3084 c-26 -21 -31 -33 -31 -67 1 -45 13 -67 47 -85 16 -9 300
-12 1102 -12 l1081 0 32 29 c44 39 44 93 -1 133 l-31 28 -1084 0 -1084 0 -31
-26z"/>
<path d="M139 2601 c-40 -41 -40 -91 0 -132 22 -21 39 -29 66 -29 51 0 95 44
95 95 0 51 -44 95 -95 95 -27 0 -44 -8 -66 -29z"/>
<path d="M429 2601 c-21 -22 -29 -39 -29 -66 0 -27 8 -44 29 -66 l29 -29 897
0 897 0 29 29 c42 42 41 99 -2 135 l-31 26 -895 0 -895 0 -29 -29z"/>
<path d="M337 2130 c-32 -25 -43 -72 -27 -111 26 -61 -11 -59 910 -59 l842 0
29 29 c21 22 29 39 29 66 0 27 -8 44 -29 66 l-29 29 -850 0 c-836 0 -850 0
-875 -20z"/>
<path d="M236 1644 c-38 -38 -36 -95 3 -135 37 -37 79 -38 119 -4 17 14 33 39
37 55 19 86 -96 146 -159 84z"/>
<path d="M537 1659 c-21 -13 -47 -61 -47 -90 0 -11 15 -36 34 -55 l34 -34 647
0 c456 0 653 3 668 11 63 32 75 102 28 150 l-29 29 -659 0 c-428 -1 -664 -4
-676 -11z"/>
</g>
</svg>
