<?xml version="1.0" standalone="no"?>
<!DOCTYPE svg PUBLIC "-//W3C//DTD SVG 20010904//EN"
 "http://www.w3.org/TR/2001/REC-SVG-20010904/DTD/svg10.dtd">
<svg version="1.0" xmlns="http://www.w3.org/2000/svg"
 width="512.000000pt" height="512.000000pt" viewBox="0 0 512.000000 512.000000"
 preserveAspectRatio="xMidYMid meet">

<g transform="translate(0.000000,512.000000) scale(0.100000,-0.100000)"
fill="#000000" stroke="none">
<path d="M4813 4260 c-83 -17 -146 -69 -182 -150 -19 -43 -21 -65 -21 -412 l0
-367 -1192 -4 c-761 -3 -1219 -9 -1266 -15 -360 -52 -677 -162 -965 -334 -601
-358 -1018 -943 -1158 -1621 -24 -120 -29 -165 -29 -294 0 -146 1 -153 24
-180 l24 -28 2512 0 2512 0 24 28 24 28 0 1179 0 1179 -24 28 c-24 28 -24 28
-170 31 l-146 3 0 354 0 354 24 28 c23 26 28 28 132 31 140 4 151 6 169 42 21
41 19 64 -9 97 -23 27 -27 28 -132 30 -60 1 -128 -2 -151 -7z m137 -1870 l0
-770 -1429 0 c-1557 0 -1469 3 -1547 -56 -60 -46 -87 -105 -92 -201 l-5 -83
-843 0 c-518 0 -844 4 -844 9 0 16 37 163 60 241 31 102 72 204 132 332 l50
106 52 7 c112 15 273 78 376 148 210 141 358 364 400 602 6 39 14 79 16 91 4
23 176 117 319 174 202 81 467 144 675 159 63 4 692 9 1398 10 l1282 1 0 -770z
m-3885 261 c-46 -132 -149 -274 -256 -356 -60 -45 -212 -125 -239 -125 -19 0
107 156 225 279 98 101 274 256 282 247 2 -1 -3 -22 -12 -45z m3885 -1286 l0
-85 -1450 0 -1450 0 0 59 c0 50 4 62 26 85 l27 26 1423 0 1424 0 0 -85z m0
-300 l0 -45 -2390 0 -2390 0 0 45 0 45 2390 0 2390 0 0 -45z"/>
<path d="M2675 2810 c-391 -42 -709 -352 -780 -759 -8 -46 -15 -111 -15 -146
0 -53 3 -65 26 -86 l26 -24 1314 0 1313 0 23 23 23 23 3 446 c2 331 -1 455 -9
476 -25 59 3 57 -966 56 -488 -1 -919 -5 -958 -9z m1763 -507 l2 -343 -1194 0
-1195 0 6 38 c19 140 79 278 166 382 117 141 288 235 472 259 39 5 446 8 905
7 l835 -1 3 -342z"/>
</g>
</svg>
