<?xml version="1.0" standalone="no"?>
<!DOCTYPE svg PUBLIC "-//W3C//DTD SVG 20010904//EN"
 "http://www.w3.org/TR/2001/REC-SVG-20010904/DTD/svg10.dtd">
<svg version="1.0" xmlns="http://www.w3.org/2000/svg"
 width="512.000000pt" height="512.000000pt" viewBox="0 0 512.000000 512.000000"
 preserveAspectRatio="xMidYMid meet">

<g transform="translate(0.000000,512.000000) scale(0.100000,-0.100000)"
fill="#000000" stroke="none">
<path d="M713 5096 l-28 -24 -3 -2196 -2 -2196 -101 0 c-93 0 -102 -2 -124
-25 l-25 -24 0 -291 0 -291 25 -24 24 -25 2081 0 2081 0 24 25 25 24 0 291 0
291 -25 24 c-22 23 -31 25 -124 25 l-101 0 -2 2196 -3 2196 -28 24 -28 24
-1819 0 -1819 0 -28 -24z m3557 -486 l0 -340 -1710 0 -1710 0 0 340 0 340
1710 0 1710 0 0 -340z m-5 -2220 l0 -1705 -1705 0 -1705 0 -3 1695 c-1 932 0
1701 3 1708 3 10 350 12 1707 10 l1703 -3 0 -1705z m255 -2050 l0 -170 -1960
0 -1960 0 0 170 0 170 1960 0 1960 0 0 -170z"/>
<path d="M3735 4841 c-133 -62 -188 -228 -118 -353 102 -181 344 -181 446 0
54 96 38 213 -41 296 -52 54 -104 76 -182 76 -42 0 -79 -7 -105 -19z m162
-173 c30 -28 32 -89 3 -118 -60 -60 -154 -10 -141 75 9 60 92 86 138 43z"/>
<path d="M1072 4770 c-31 -13 -55 -71 -43 -104 18 -47 46 -56 167 -56 122 0
157 13 166 64 7 36 -17 85 -47 96 -33 12 -212 12 -243 0z"/>
<path d="M1585 4768 c-52 -28 -62 -92 -20 -133 23 -24 30 -25 144 -25 l119 0
27 32 c32 38 29 81 -11 116 -23 20 -35 22 -132 22 -59 0 -116 -6 -127 -12z"/>
<path d="M2759 4751 c-31 -31 -36 -59 -17 -94 24 -46 29 -46 331 -47 l288 0
24 25 c15 15 25 36 25 54 0 87 -14 91 -345 91 l-277 0 -29 -29z"/>
<path d="M2325 3734 c-304 -54 -601 -222 -793 -446 -365 -426 -440 -1009 -195
-1503 196 -395 558 -664 996 -741 122 -22 333 -22 457 0 371 66 697 279 906
592 54 81 137 245 149 297 7 27 8 27 92 27 99 0 136 15 152 61 15 45 15 694 0
739 -16 44 -58 60 -158 60 -77 0 -79 1 -85 26 -4 15 -27 69 -51 121 -187 399
-574 695 -1004 767 -117 20 -355 20 -466 0z m466 -174 c248 -51 432 -150 615
-334 100 -101 165 -189 221 -301 49 -97 50 -104 13 -117 -57 -19 -60 -38 -60
-418 0 -378 3 -396 59 -420 36 -15 36 -20 -11 -115 -156 -312 -470 -557 -806
-629 -116 -25 -144 -28 -272 -27 -202 1 -362 40 -540 133 -158 82 -305 207
-414 353 -103 136 -191 352 -216 524 -18 117 -8 363 18 461 63 238 166 415
339 581 169 163 354 259 591 309 125 27 333 26 463 0z m1134 -1170 l0 -255
-85 0 -85 0 -3 245 c-1 134 0 251 3 258 3 9 26 12 87 10 l83 -3 0 -255z"/>
<path d="M2425 3319 c-38 -5 -114 -24 -167 -43 -483 -165 -745 -683 -591
-1170 44 -139 106 -246 208 -354 372 -399 991 -401 1366 -6 190 201 282 476
251 746 -25 215 -114 398 -267 553 -214 217 -493 313 -800 274z m239 -169 c95
-14 209 -54 291 -102 86 -51 208 -171 259 -255 285 -472 2 -1078 -542 -1162
-95 -15 -143 -14 -247 4 -397 69 -679 450 -627 845 40 299 237 542 515 635
127 42 229 52 351 35z"/>
<path d="M2267 2876 c-31 -13 -73 -36 -92 -50 -66 -50 -116 -144 -122 -231 -4
-50 -2 -64 16 -86 53 -68 151 -24 151 67 0 39 36 100 73 123 19 12 59 26 88
31 63 12 89 37 89 87 0 81 -88 106 -203 59z"/>
</g>
</svg>
