<?xml version="1.0" standalone="no"?>
<!DOCTYPE svg PUBLIC "-//W3C//DTD SVG 20010904//EN"
 "http://www.w3.org/TR/2001/REC-SVG-20010904/DTD/svg10.dtd">
<svg version="1.0" xmlns="http://www.w3.org/2000/svg"
 width="512.000000pt" height="512.000000pt" viewBox="0 0 512.000000 512.000000"
 preserveAspectRatio="xMidYMid meet">

<g transform="translate(0.000000,512.000000) scale(0.100000,-0.100000)"
fill="#000000" stroke="none">
<path d="M1198 4936 c-89 -31 -152 -78 -210 -154 -67 -88 -92 -173 -86 -296 3
-83 8 -102 41 -168 36 -75 110 -158 162 -186 14 -7 25 -16 24 -20 0 -4 -21
-21 -47 -38 -66 -42 -137 -139 -162 -220 -40 -130 -19 -298 50 -392 16 -23 30
-44 30 -47 0 -3 -73 -5 -163 -5 -186 0 -241 -11 -309 -63 -184 -141 -153 -428
56 -523 28 -12 77 -26 108 -29 55 -7 58 -9 63 -39 2 -17 45 -501 95 -1076 50
-575 95 -1067 100 -1094 27 -136 140 -287 265 -353 138 -73 50 -68 1325 -68
1275 0 1187 -5 1325 68 126 67 238 216 265 353 5 27 50 519 100 1094 50 575
93 1059 95 1076 5 30 8 32 63 39 190 22 314 182 281 362 -19 102 -82 182 -178
227 -40 18 -71 22 -228 26 l-182 5 35 55 c125 197 68 480 -120 605 -25 17 -46
32 -46 35 0 3 13 13 28 22 42 25 107 91 138 140 95 149 84 367 -24 510 -58 76
-121 123 -210 154 l-67 24 -1275 0 -1275 0 -67 -24z m2657 -160 c244 -116 213
-475 -47 -543 -42 -10 -199 -13 -758 -13 -651 0 -708 1 -739 18 -100 50 -105
181 -10 237 31 18 55 20 244 23 116 1 336 -1 490 -5 239 -7 280 -10 280 -23 0
-12 -26 -16 -152 -20 -140 -5 -154 -7 -174 -27 -32 -32 -30 -80 6 -110 28 -24
30 -25 196 -21 l167 3 39 31 c55 45 77 88 77 149 -2 95 -58 157 -158 176 -37
6 -229 9 -534 7 -473 -3 -477 -3 -527 -26 -150 -69 -219 -240 -159 -395 6 -17
-12 -18 -407 -15 -398 3 -416 4 -460 24 -181 84 -228 325 -91 467 37 39 76 64
122 78 14 4 592 8 1285 8 l1260 1 50 -24z m0 -800 c244 -116 213 -475 -47
-543 -42 -10 -199 -13 -758 -13 -651 0 -708 1 -739 18 -100 50 -105 181 -10
237 31 18 55 20 244 23 116 1 336 -1 490 -5 239 -7 280 -10 280 -23 0 -12 -26
-16 -152 -20 -140 -5 -154 -7 -174 -27 -32 -32 -30 -80 6 -110 28 -24 30 -25
196 -21 l167 3 39 31 c55 45 77 88 77 149 -2 95 -58 157 -158 176 -37 6 -229
9 -534 7 -473 -3 -477 -3 -527 -26 -150 -69 -219 -240 -159 -395 6 -17 -12
-18 -407 -15 -398 3 -416 4 -460 24 -181 84 -228 325 -91 467 37 39 76 64 122
78 14 4 592 8 1285 8 l1260 1 50 -24z m585 -747 c98 -55 101 -182 6 -253 l-27
-21 -1879 0 -1879 0 -27 21 c-50 37 -68 70 -68 124 0 56 20 91 74 128 l33 22
1865 0 1864 0 38 -21z m-276 -476 c-3 -21 -45 -504 -94 -1073 -60 -687 -95
-1054 -106 -1090 -41 -137 -162 -238 -311 -260 -91 -13 -2135 -13 -2226 0
-151 22 -270 123 -313 266 -8 26 -53 505 -104 1088 -49 572 -92 1056 -94 1074
l-5 32 1629 0 1628 0 -4 -37z"/>
<path d="M2082 2529 c-71 -28 -144 -101 -171 -174 -54 -145 5 -305 140 -380
l54 -30 435 0 435 0 54 30 c135 75 194 235 140 380 -28 74 -100 146 -174 174
-53 20 -74 21 -458 20 -379 0 -405 -1 -455 -20z m876 -159 c68 -42 92 -132 52
-198 -11 -18 -34 -41 -52 -52 -31 -19 -51 -20 -418 -20 -367 0 -387 1 -418 20
-93 57 -95 186 -3 247 34 23 35 23 420 23 368 0 388 -1 419 -20z"/>
</g>
</svg>
