<?xml version="1.0" standalone="no"?>
<!DOCTYPE svg PUBLIC "-//W3C//DTD SVG 20010904//EN"
 "http://www.w3.org/TR/2001/REC-SVG-20010904/DTD/svg10.dtd">
<svg version="1.0" xmlns="http://www.w3.org/2000/svg"
 width="512.000000pt" height="512.000000pt" viewBox="0 0 512.000000 512.000000"
 preserveAspectRatio="xMidYMid meet">

<g transform="translate(0.000000,512.000000) scale(0.100000,-0.100000)"
fill="#000000" stroke="none">
<path d="M4605 5107 c-109 -37 -177 -96 -221 -192 -41 -88 -40 -186 2 -276
l31 -65 -76 -105 c-42 -58 -134 -185 -204 -282 l-128 -177 -102 89 c-509 444
-1206 611 -1852 444 -578 -150 -1061 -542 -1328 -1078 -145 -292 -211 -574
-211 -905 0 -308 59 -582 186 -860 76 -167 245 -415 357 -525 28 -27 51 -53
51 -57 0 -4 -159 -8 -354 -8 -194 0 -377 -5 -407 -10 -83 -16 -169 -63 -228
-125 -215 -227 -124 -593 173 -695 57 -19 82 -20 885 -20 916 0 871 3 871 -63
1 -75 73 -166 150 -187 20 -6 218 -10 467 -10 l432 0 27 24 c39 33 39 89 0
122 l-27 24 -428 0 c-331 0 -431 3 -438 13 -6 6 -13 32 -17 56 -9 58 -27 91
-74 133 -27 24 -56 39 -91 47 -36 8 -308 11 -867 11 -882 0 -843 -2 -917 54
-45 35 -87 115 -94 179 -11 113 67 229 178 261 44 14 123 16 505 16 l453 0
113 -76 c379 -255 858 -382 1293 -344 510 45 943 246 1296 601 l116 117 154
-110 c85 -60 162 -115 171 -122 17 -12 17 -16 2 -60 -36 -106 0 -249 85 -332
171 -168 446 -117 548 101 39 84 39 194 1 277 -32 69 -96 136 -163 169 -42 20
-64 24 -145 24 -85 0 -102 -3 -149 -28 -29 -15 -58 -24 -64 -20 -15 8 -319
223 -330 233 -4 4 19 49 53 101 150 230 248 495 296 801 22 138 22 437 0 574
-56 361 -192 681 -404 958 -29 38 -51 74 -48 81 2 6 97 140 210 297 l206 286
48 -15 c72 -22 177 -13 247 23 72 36 138 109 165 182 30 78 25 195 -10 267
-32 66 -99 131 -165 161 -66 31 -172 40 -230 21z m164 -172 c16 -8 40 -28 55
-45 89 -106 23 -265 -114 -278 -53 -5 -59 1 -35 32 42 55 -13 145 -79 132 -16
-4 -37 -13 -47 -22 -15 -13 -17 -13 -22 1 -14 35 14 114 55 152 46 43 133 56
187 28z m-1985 -513 l39 -7 -74 -60 c-91 -73 -208 -190 -281 -281 -52 -65
-163 -225 -170 -245 -2 -5 -48 -18 -103 -28 -55 -11 -133 -29 -174 -40 -41
-11 -77 -19 -79 -16 -6 6 52 98 106 170 160 210 349 371 560 476 78 39 105 43
176 31z m-504 -30 c-228 -179 -431 -427 -563 -688 -34 -67 -39 -73 -109 -109
-40 -21 -113 -65 -163 -98 -302 -202 -542 -473 -701 -792 -31 -63 -58 -115
-59 -115 -6 0 8 155 21 245 53 353 200 674 436 950 272 319 649 536 1073 619
98 20 104 19 65 -12z m922 -71 c4 -4 -29 -43 -74 -86 -93 -92 -205 -228 -272
-333 l-46 -73 -148 7 c-81 4 -148 8 -150 9 -1 1 28 42 66 91 122 158 272 296
420 387 l73 45 62 -20 c34 -11 65 -24 69 -27z m270 -122 c40 -23 75 -43 77
-45 2 -2 -15 -27 -38 -56 -73 -92 -141 -190 -197 -285 l-55 -92 -47 15 c-26 8
-84 25 -129 36 -46 12 -83 26 -83 31 0 5 26 46 58 91 55 78 311 346 331 346 5
0 42 -19 83 -41z m333 -237 c52 -46 95 -88 95 -94 0 -7 -194 -284 -237 -337
-2 -3 -18 4 -36 14 -17 10 -71 39 -119 65 l-87 46 28 49 c68 123 234 349 252
343 5 -2 51 -40 104 -86z m290 -327 c74 -102 191 -329 234 -455 54 -155 101
-379 101 -480 0 -32 -4 -28 -53 60 -129 233 -309 452 -504 612 l-72 59 107
149 c59 82 111 148 115 147 4 -1 37 -43 72 -92z m-1344 24 c231 -23 432 -80
644 -184 72 -35 138 -69 147 -77 15 -12 10 -22 -52 -108 -38 -52 -71 -106 -73
-120 -7 -35 17 -75 54 -90 27 -12 36 -11 63 4 17 9 38 26 45 38 7 11 37 54 68
95 l54 74 42 -33 c72 -56 227 -210 287 -284 138 -172 248 -372 319 -580 49
-143 56 -193 39 -258 l-14 -48 -51 83 c-177 289 -454 555 -752 724 -694 392
-1582 334 -2221 -146 -106 -80 -284 -251 -362 -348 -69 -86 -162 -223 -204
-300 l-29 -54 -13 44 c-15 53 -1 131 55 299 273 822 1097 1357 1954 1269z
m-246 -706 c-28 -170 -35 -486 -15 -668 48 -442 203 -853 447 -1183 31 -42
106 -128 166 -189 73 -75 105 -114 96 -118 -8 -2 -40 -13 -71 -24 l-57 -19
-73 45 c-490 301 -814 910 -857 1608 -9 140 -3 341 14 477 8 63 -2 57 120 78
97 16 107 17 172 19 l63 1 -5 -27z m408 -1 l98 -17 -8 -85 c-4 -47 -8 -199 -7
-337 0 -139 -1 -253 -4 -253 -2 0 -15 9 -29 20 -58 46 -143 8 -143 -64 0 -39
19 -59 148 -149 52 -37 82 -65 82 -77 0 -34 71 -264 117 -380 79 -198 206
-418 326 -564 31 -38 57 -72 57 -75 0 -7 -135 -83 -158 -89 -21 -6 -273 256
-342 355 -201 287 -323 603 -382 983 -18 117 -17 556 1 674 l13 89 67 -7 c36
-3 110 -14 164 -24z m-943 -234 c-50 -759 245 -1517 754 -1932 l99 -81 -61 -9
c-57 -8 -67 -6 -124 19 -484 216 -867 779 -982 1440 -24 136 -41 417 -30 504
l9 75 70 38 c69 37 267 120 273 113 2 -1 -2 -77 -8 -167z m1293 136 c278 -106
580 -329 772 -569 73 -91 162 -229 216 -338 l50 -98 -51 -102 c-71 -142 -152
-268 -168 -262 -35 13 -881 627 -886 642 -3 10 -13 83 -22 163 -22 192 -12
590 14 590 4 0 37 -12 75 -26z m-1793 -604 c68 -601 357 -1163 761 -1481 43
-35 77 -64 76 -66 -6 -5 -160 27 -252 53 -119 33 -231 77 -339 133 l-89 46 56
3 c44 2 61 8 81 29 28 28 34 76 13 104 -26 34 -54 39 -231 39 l-176 0 -77 73
c-197 186 -335 373 -432 584 l-24 52 28 63 c105 238 288 478 500 660 l80 68 7
-132 c4 -73 12 -176 18 -228z m2153 -651 c194 -138 354 -253 356 -255 14 -13
-252 -269 -279 -269 -26 0 -202 246 -279 390 -63 117 -170 385 -155 385 3 0
164 -113 357 -251z m1257 -609 c36 -26 70 -90 70 -135 0 -42 -32 -107 -65
-133 -111 -87 -275 -7 -275 134 0 35 1 36 23 22 40 -26 71 -29 104 -8 43 26
51 69 23 117 l-21 36 54 -5 c35 -3 65 -13 87 -28z"/>
</g>
</svg>
