<svg xmlns="http://www.w3.org/2000/svg" xmlns:xlink="http://www.w3.org/1999/xlink" width="500" zoomAndPan="magnify" viewBox="0 0 375 374.999991" height="500" preserveAspectRatio="xMidYMid meet" version="1.0"><defs><clipPath id="id1"><path d="M 77 21.277344 L 298 21.277344 L 298 43 L 77 43 Z M 77 21.277344 " clip-rule="nonzero"/></clipPath><clipPath id="id2"><path d="M 53.273438 75 L 321.773438 75 L 321.773438 353.527344 L 53.273438 353.527344 Z M 53.273438 75 " clip-rule="nonzero"/></clipPath></defs><path fill="#000000" d="M 187.523438 174.625 C 185.695312 174.625 183.871094 174.714844 182.054688 174.894531 C 180.234375 175.074219 178.425781 175.339844 176.632812 175.695312 C 174.839844 176.050781 173.070312 176.496094 171.320312 177.027344 C 169.570312 177.554688 167.851562 178.171875 166.160156 178.867188 C 164.472656 179.566406 162.820312 180.347656 161.207031 181.207031 C 159.597656 182.070312 158.03125 183.007812 156.507812 184.023438 C 154.988281 185.035156 153.523438 186.125 152.109375 187.28125 C 150.695312 188.441406 149.34375 189.664062 148.050781 190.957031 C 146.757812 192.25 145.53125 193.601562 144.371094 195.011719 C 143.210938 196.425781 142.121094 197.890625 141.105469 199.40625 C 140.089844 200.925781 139.152344 202.492188 138.289062 204.101562 C 137.429688 205.714844 136.648438 207.363281 135.945312 209.050781 C 135.246094 210.738281 134.632812 212.453125 134.101562 214.203125 C 133.570312 215.949219 133.128906 217.71875 132.769531 219.511719 C 132.414062 221.304688 132.144531 223.109375 131.964844 224.925781 C 131.789062 226.742188 131.699219 228.566406 131.699219 230.390625 C 131.699219 232.21875 131.785156 234.039062 131.964844 235.859375 C 132.144531 237.675781 132.414062 239.480469 132.769531 241.269531 C 133.125 243.0625 133.570312 244.832031 134.097656 246.578125 C 134.628906 248.328125 135.246094 250.042969 135.945312 251.730469 C 136.644531 253.417969 137.425781 255.070312 138.285156 256.679688 C 139.148438 258.289062 140.085938 259.855469 141.101562 261.375 C 142.117188 262.890625 143.203125 264.355469 144.363281 265.769531 C 145.523438 267.179688 146.75 268.53125 148.042969 269.824219 C 149.335938 271.117188 150.6875 272.339844 152.101562 273.5 C 153.511719 274.65625 154.980469 275.746094 156.5 276.757812 C 158.019531 277.773438 159.585938 278.710938 161.195312 279.574219 C 162.808594 280.433594 164.460938 281.214844 166.148438 281.914062 C 167.835938 282.613281 169.554688 283.226562 171.304688 283.757812 C 173.054688 284.285156 174.824219 284.730469 176.617188 285.085938 C 178.410156 285.441406 180.21875 285.710938 182.035156 285.890625 C 183.855469 286.066406 185.679688 286.15625 187.507812 286.15625 C 189.335938 286.15625 191.160156 286.070312 192.976562 285.890625 C 194.796875 285.710938 196.601562 285.445312 198.394531 285.085938 C 200.1875 284.730469 201.957031 284.289062 203.707031 283.757812 C 205.457031 283.226562 207.175781 282.613281 208.863281 281.914062 C 210.554688 281.214844 212.203125 280.4375 213.816406 279.574219 C 215.425781 278.714844 216.992188 277.777344 218.511719 276.761719 C 220.03125 275.746094 221.5 274.660156 222.910156 273.5 C 224.324219 272.34375 225.675781 271.117188 226.96875 269.828125 C 228.261719 268.535156 229.488281 267.183594 230.648438 265.769531 C 231.808594 264.359375 232.894531 262.894531 233.910156 261.375 C 234.925781 259.855469 235.863281 258.292969 236.726562 256.679688 C 237.589844 255.070312 238.367188 253.421875 239.070312 251.734375 C 239.769531 250.046875 240.382812 248.328125 240.914062 246.582031 C 241.445312 244.832031 241.886719 243.0625 242.246094 241.273438 C 242.601562 239.480469 242.867188 237.675781 243.046875 235.859375 C 243.226562 234.039062 243.316406 232.21875 243.316406 230.390625 C 243.316406 228.566406 243.222656 226.746094 243.042969 224.929688 C 242.863281 223.113281 242.59375 221.308594 242.234375 219.519531 C 241.878906 217.730469 241.433594 215.960938 240.902344 214.214844 C 240.371094 212.46875 239.753906 210.75 239.054688 209.066406 C 238.355469 207.378906 237.574219 205.730469 236.710938 204.121094 C 235.851562 202.511719 234.910156 200.949219 233.894531 199.429688 C 232.882812 197.910156 231.792969 196.449219 230.636719 195.035156 C 229.476562 193.625 228.25 192.273438 226.957031 190.984375 C 225.667969 189.691406 224.316406 188.46875 222.902344 187.308594 C 221.492188 186.152344 220.027344 185.0625 218.507812 184.050781 C 216.988281 183.035156 215.425781 182.097656 213.8125 181.234375 C 212.203125 180.371094 210.554688 179.59375 208.867188 178.890625 C 207.179688 178.191406 205.460938 177.578125 203.714844 177.042969 C 201.96875 176.511719 200.195312 176.070312 198.40625 175.710938 C 196.613281 175.351562 194.808594 175.082031 192.992188 174.902344 C 191.175781 174.71875 189.351562 174.628906 187.523438 174.625 Z M 187.523438 174.625 " fill-opacity="1" fill-rule="nonzero"/><path fill="#000000" d="M 83.746094 102.429688 L 114.152344 102.429688 C 114.539062 102.429688 114.90625 102.503906 115.265625 102.648438 C 115.621094 102.796875 115.933594 103.007812 116.207031 103.277344 C 116.480469 103.550781 116.6875 103.867188 116.835938 104.222656 C 116.984375 104.578125 117.058594 104.945312 117.058594 105.332031 L 117.058594 117.429688 C 117.058594 117.816406 116.984375 118.1875 116.835938 118.542969 C 116.6875 118.898438 116.480469 119.210938 116.207031 119.484375 C 115.933594 119.757812 115.621094 119.964844 115.265625 120.113281 C 114.90625 120.261719 114.539062 120.335938 114.152344 120.335938 L 83.746094 120.335938 C 83.359375 120.335938 82.988281 120.261719 82.632812 120.113281 C 82.277344 119.964844 81.964844 119.757812 81.691406 119.484375 C 81.417969 119.210938 81.207031 118.898438 81.0625 118.542969 C 80.914062 118.1875 80.839844 117.816406 80.839844 117.429688 L 80.839844 105.332031 C 80.839844 104.945312 80.914062 104.578125 81.0625 104.222656 C 81.207031 103.867188 81.417969 103.550781 81.691406 103.277344 C 81.964844 103.007812 82.277344 102.796875 82.632812 102.648438 C 82.988281 102.503906 83.359375 102.429688 83.746094 102.429688 Z M 83.746094 102.429688 " fill-opacity="1" fill-rule="nonzero"/><path fill="#000000" d="M 146.324219 102.429688 L 158.429688 102.429688 C 158.8125 102.429688 159.183594 102.503906 159.539062 102.648438 C 159.894531 102.796875 160.210938 103.007812 160.484375 103.277344 C 160.753906 103.550781 160.964844 103.867188 161.113281 104.222656 C 161.261719 104.578125 161.335938 104.945312 161.335938 105.332031 L 161.335938 117.429688 C 161.335938 117.816406 161.261719 118.1875 161.113281 118.542969 C 160.964844 118.898438 160.753906 119.210938 160.484375 119.484375 C 160.210938 119.757812 159.894531 119.964844 159.539062 120.113281 C 159.183594 120.261719 158.8125 120.335938 158.429688 120.335938 L 146.324219 120.335938 C 145.9375 120.335938 145.566406 120.261719 145.210938 120.113281 C 144.855469 119.964844 144.539062 119.757812 144.269531 119.484375 C 143.996094 119.210938 143.785156 118.898438 143.636719 118.542969 C 143.492188 118.1875 143.417969 117.816406 143.417969 117.429688 L 143.417969 105.332031 C 143.417969 104.945312 143.492188 104.578125 143.636719 104.222656 C 143.785156 103.867188 143.996094 103.550781 144.269531 103.277344 C 144.539062 103.007812 144.855469 102.796875 145.210938 102.648438 C 145.566406 102.503906 145.9375 102.429688 146.324219 102.429688 Z M 146.324219 102.429688 " fill-opacity="1" fill-rule="nonzero"/><g clip-path="url(#id1)"><path fill="#000000" d="M 87.96875 42.398438 L 287.078125 42.398438 C 287.773438 42.398438 288.460938 42.328125 289.140625 42.195312 C 289.824219 42.058594 290.484375 41.859375 291.125 41.59375 C 291.769531 41.328125 292.378906 41 292.957031 40.617188 C 293.53125 40.230469 294.066406 39.792969 294.558594 39.300781 C 295.050781 38.8125 295.488281 38.277344 295.875 37.699219 C 296.257812 37.121094 296.585938 36.515625 296.851562 35.871094 C 297.117188 35.230469 297.316406 34.570312 297.453125 33.890625 C 297.589844 33.210938 297.65625 32.523438 297.65625 31.828125 C 297.65625 31.132812 297.589844 30.445312 297.453125 29.765625 C 297.316406 29.085938 297.117188 28.425781 296.851562 27.785156 C 296.585938 27.140625 296.257812 26.535156 295.875 25.957031 C 295.488281 25.378906 295.050781 24.84375 294.558594 24.355469 C 294.066406 23.863281 293.53125 23.425781 292.957031 23.039062 C 292.378906 22.65625 291.769531 22.328125 291.125 22.0625 C 290.484375 21.796875 289.824219 21.597656 289.140625 21.460938 C 288.460938 21.328125 287.773438 21.257812 287.078125 21.257812 L 87.96875 21.257812 C 87.277344 21.257812 86.589844 21.328125 85.90625 21.460938 C 85.226562 21.597656 84.5625 21.796875 83.921875 22.0625 C 83.28125 22.328125 82.671875 22.65625 82.09375 23.039062 C 81.515625 23.425781 80.980469 23.863281 80.492188 24.355469 C 80 24.84375 79.5625 25.378906 79.175781 25.957031 C 78.789062 26.535156 78.464844 27.140625 78.199219 27.785156 C 77.933594 28.425781 77.730469 29.085938 77.597656 29.765625 C 77.460938 30.445312 77.394531 31.132812 77.394531 31.828125 C 77.394531 32.523438 77.460938 33.210938 77.597656 33.890625 C 77.730469 34.570312 77.933594 35.230469 78.199219 35.871094 C 78.464844 36.515625 78.789062 37.121094 79.175781 37.699219 C 79.5625 38.277344 80 38.8125 80.492188 39.300781 C 80.980469 39.792969 81.515625 40.230469 82.09375 40.617188 C 82.671875 41 83.28125 41.328125 83.921875 41.59375 C 84.5625 41.859375 85.226562 42.058594 85.90625 42.195312 C 86.589844 42.328125 87.277344 42.398438 87.96875 42.398438 Z M 87.96875 42.398438 " fill-opacity="1" fill-rule="nonzero"/></g><path fill="#000000" d="M 264.820312 213.796875 C 264.480469 212.222656 264.09375 210.664062 263.660156 209.117188 C 263.226562 207.570312 262.746094 206.035156 262.21875 204.519531 C 261.691406 203 261.117188 201.5 260.5 200.015625 C 259.878906 198.53125 259.214844 197.070312 258.507812 195.625 C 257.800781 194.183594 257.046875 192.761719 256.253906 191.367188 C 255.457031 189.96875 254.621094 188.597656 253.742188 187.253906 C 252.859375 185.90625 251.941406 184.589844 250.980469 183.296875 C 250.023438 182.007812 249.023438 180.75 247.988281 179.519531 C 246.949219 178.292969 245.878906 177.09375 244.769531 175.933594 C 243.660156 174.769531 242.515625 173.640625 241.335938 172.546875 C 240.15625 171.453125 238.945312 170.394531 237.703125 169.375 C 236.460938 168.355469 235.1875 167.375 233.882812 166.433594 C 232.582031 165.492188 231.25 164.589844 229.890625 163.726562 C 228.535156 162.867188 227.148438 162.046875 225.742188 161.273438 C 224.332031 160.496094 222.902344 159.761719 221.449219 159.074219 C 219.996094 158.382812 218.523438 157.738281 217.03125 157.140625 C 215.539062 156.539062 214.03125 155.988281 212.503906 155.480469 C 210.976562 154.972656 209.4375 154.511719 207.882812 154.097656 C 206.328125 153.683594 204.761719 153.320312 203.1875 153 C 201.609375 152.683594 200.023438 152.414062 198.433594 152.191406 C 196.839844 151.972656 195.242188 151.800781 193.636719 151.675781 C 192.03125 151.550781 190.425781 151.476562 188.820312 151.449219 C 187.210938 151.425781 185.601562 151.449219 183.996094 151.519531 C 182.390625 151.59375 180.785156 151.714844 179.1875 151.882812 C 177.585938 152.054688 175.996094 152.273438 174.410156 152.539062 C 172.824219 152.808594 171.246094 153.121094 169.679688 153.488281 C 168.113281 153.851562 166.558594 154.261719 165.015625 154.71875 C 163.476562 155.175781 161.949219 155.683594 160.4375 156.234375 C 158.925781 156.785156 157.433594 157.382812 155.960938 158.023438 C 154.484375 158.667969 153.03125 159.351562 151.597656 160.085938 C 150.167969 160.816406 148.757812 161.589844 147.375 162.40625 C 145.988281 163.222656 144.628906 164.082031 143.296875 164.980469 C 141.964844 165.882812 140.660156 166.820312 139.382812 167.800781 C 138.109375 168.78125 136.863281 169.796875 135.652344 170.851562 C 134.4375 171.90625 133.257812 173 132.113281 174.125 C 130.964844 175.253906 129.855469 176.414062 128.78125 177.609375 C 127.703125 178.804688 126.667969 180.03125 125.664062 181.289062 C 124.664062 182.550781 123.703125 183.835938 122.78125 185.152344 C 121.859375 186.472656 120.980469 187.816406 120.140625 189.1875 C 119.300781 190.554688 118.503906 191.953125 117.75 193.371094 C 116.992188 194.789062 116.28125 196.230469 115.617188 197.695312 C 114.949219 199.15625 114.328125 200.636719 113.753906 202.140625 C 113.175781 203.640625 112.648438 205.15625 112.164062 206.691406 C 111.679688 208.222656 111.246094 209.769531 110.855469 211.328125 C 110.46875 212.886719 110.125 214.457031 109.832031 216.039062 C 109.539062 217.617188 109.296875 219.207031 109.101562 220.800781 C 108.90625 222.398438 108.757812 223.996094 108.660156 225.601562 C 108.5625 227.203125 108.511719 228.8125 108.511719 230.417969 C 108.511719 232.023438 108.5625 233.632812 108.660156 235.234375 C 108.757812 236.839844 108.90625 238.4375 109.101562 240.035156 C 109.296875 241.628906 109.539062 243.21875 109.832031 244.796875 C 110.125 246.378906 110.46875 247.949219 110.855469 249.507812 C 111.246094 251.066406 111.679688 252.613281 112.164062 254.144531 C 112.648438 255.679688 113.175781 257.195312 113.753906 258.695312 C 114.328125 260.199219 114.949219 261.679688 115.617188 263.140625 C 116.28125 264.605469 116.992188 266.046875 117.75 267.464844 C 118.503906 268.882812 119.300781 270.28125 120.140625 271.648438 C 120.980469 273.019531 121.859375 274.363281 122.78125 275.683594 C 123.703125 277 124.664062 278.285156 125.664062 279.546875 C 126.667969 280.804688 127.703125 282.03125 128.78125 283.226562 C 129.855469 284.421875 130.964844 285.582031 132.113281 286.710938 C 133.257812 287.835938 134.4375 288.929688 135.652344 289.984375 C 136.863281 291.039062 138.109375 292.054688 139.382812 293.035156 C 140.660156 294.015625 141.964844 294.953125 143.296875 295.855469 C 144.628906 296.753906 145.988281 297.613281 147.375 298.429688 C 148.757812 299.246094 150.167969 300.019531 151.597656 300.75 C 153.03125 301.484375 154.484375 302.167969 155.960938 302.8125 C 157.433594 303.453125 158.925781 304.050781 160.4375 304.601562 C 161.949219 305.152344 163.476562 305.660156 165.015625 306.117188 C 166.558594 306.574219 168.113281 306.984375 169.679688 307.347656 C 171.246094 307.714844 172.824219 308.027344 174.410156 308.296875 C 175.996094 308.5625 177.585938 308.78125 179.1875 308.953125 C 180.785156 309.121094 182.390625 309.242188 183.996094 309.316406 C 185.601562 309.386719 187.210938 309.410156 188.820312 309.386719 C 190.425781 309.359375 192.03125 309.285156 193.636719 309.160156 C 195.242188 309.035156 196.839844 308.863281 198.433594 308.644531 C 200.023438 308.421875 201.609375 308.152344 203.1875 307.835938 C 204.761719 307.515625 206.328125 307.152344 207.882812 306.738281 C 209.4375 306.324219 210.976562 305.863281 212.503906 305.355469 C 214.03125 304.847656 215.539062 304.296875 217.03125 303.695312 C 218.523438 303.097656 219.996094 302.453125 221.449219 301.761719 C 222.902344 301.074219 224.332031 300.339844 225.742188 299.5625 C 227.148438 298.789062 228.535156 297.96875 229.890625 297.109375 C 231.25 296.246094 232.582031 295.34375 233.882812 294.402344 C 235.1875 293.460938 236.460938 292.480469 237.703125 291.460938 C 238.945312 290.441406 240.15625 289.382812 241.335938 288.289062 C 242.515625 287.195312 243.660156 286.066406 244.769531 284.902344 C 245.878906 283.742188 246.949219 282.542969 247.988281 281.316406 C 249.023438 280.085938 250.023438 278.828125 250.980469 277.539062 C 251.941406 276.246094 252.859375 274.929688 253.742188 273.585938 C 254.621094 272.238281 255.457031 270.867188 256.253906 269.46875 C 257.046875 268.074219 257.800781 266.652344 258.507812 265.210938 C 259.214844 263.765625 259.878906 262.304688 260.5 260.820312 C 261.117188 259.335938 261.691406 257.835938 262.21875 256.316406 C 262.746094 254.800781 263.226562 253.265625 263.660156 251.71875 C 264.09375 250.171875 264.480469 248.613281 264.820312 247.039062 C 265.945312 241.550781 266.535156 236.007812 266.59375 230.402344 C 266.613281 224.800781 266.023438 219.265625 264.820312 213.796875 Z M 187.523438 291.96875 C 185.507812 291.96875 183.492188 291.871094 181.484375 291.671875 C 179.476562 291.472656 177.480469 291.179688 175.503906 290.785156 C 173.523438 290.394531 171.566406 289.902344 169.636719 289.316406 C 167.707031 288.734375 165.808594 288.054688 163.941406 287.28125 C 162.078125 286.511719 160.253906 285.648438 158.476562 284.699219 C 156.695312 283.75 154.964844 282.714844 153.289062 281.59375 C 151.609375 280.472656 149.992188 279.273438 148.429688 277.992188 C 146.871094 276.714844 145.378906 275.363281 143.949219 273.9375 C 142.523438 272.511719 141.167969 271.015625 139.890625 269.457031 C 138.609375 267.898438 137.40625 266.28125 136.285156 264.605469 C 135.164062 262.929688 134.128906 261.199219 133.175781 259.421875 C 132.226562 257.644531 131.363281 255.824219 130.589844 253.960938 C 129.820312 252.097656 129.140625 250.199219 128.554688 248.269531 C 127.96875 246.339844 127.476562 244.386719 127.085938 242.40625 C 126.691406 240.429688 126.394531 238.4375 126.195312 236.429688 C 126 234.421875 125.898438 232.410156 125.898438 230.394531 C 125.898438 228.378906 126 226.367188 126.195312 224.359375 C 126.394531 222.351562 126.691406 220.359375 127.082031 218.382812 C 127.476562 216.40625 127.964844 214.453125 128.550781 212.523438 C 129.136719 210.589844 129.816406 208.695312 130.589844 206.832031 C 131.359375 204.96875 132.222656 203.148438 133.175781 201.371094 C 134.125 199.589844 135.160156 197.863281 136.28125 196.1875 C 137.402344 194.511719 138.605469 192.890625 139.886719 191.332031 C 141.164062 189.773438 142.519531 188.28125 143.945312 186.855469 C 145.375 185.429688 146.867188 184.078125 148.425781 182.796875 C 149.988281 181.519531 151.605469 180.320312 153.285156 179.199219 C 154.960938 178.078125 156.691406 177.042969 158.472656 176.09375 C 160.25 175.140625 162.074219 174.28125 163.9375 173.507812 C 165.804688 172.738281 167.703125 172.058594 169.632812 171.472656 C 171.5625 170.886719 173.519531 170.398438 175.5 170.003906 C 177.480469 169.613281 179.472656 169.316406 181.480469 169.117188 C 183.488281 168.921875 185.503906 168.820312 187.523438 168.820312 C 189.539062 168.820312 191.554688 168.921875 193.5625 169.121094 C 195.570312 169.316406 197.566406 169.613281 199.546875 170.007812 C 201.527344 170.402344 203.480469 170.890625 205.414062 171.476562 C 207.34375 172.0625 209.242188 172.742188 211.109375 173.511719 C 212.972656 174.285156 214.796875 175.148438 216.574219 176.097656 C 218.355469 177.050781 220.085938 178.085938 221.761719 179.207031 C 223.441406 180.328125 225.058594 181.527344 226.621094 182.808594 C 228.179688 184.085938 229.675781 185.441406 231.101562 186.867188 C 232.527344 188.292969 233.882812 189.785156 235.164062 191.34375 C 236.441406 192.902344 237.644531 194.523438 238.765625 196.199219 C 239.886719 197.875 240.921875 199.605469 241.871094 201.382812 C 242.824219 203.160156 243.6875 204.984375 244.457031 206.847656 C 245.230469 208.710938 245.910156 210.605469 246.492188 212.535156 C 247.078125 214.464844 247.570312 216.421875 247.960938 218.398438 C 248.355469 220.375 248.652344 222.371094 248.847656 224.375 C 249.046875 226.382812 249.144531 228.394531 249.144531 230.414062 C 249.140625 232.425781 249.039062 234.4375 248.839844 236.445312 C 248.636719 238.449219 248.339844 240.441406 247.945312 242.417969 C 247.550781 244.394531 247.058594 246.34375 246.46875 248.273438 C 245.882812 250.203125 245.203125 252.097656 244.429688 253.957031 C 243.65625 255.820312 242.792969 257.640625 241.839844 259.417969 C 240.890625 261.191406 239.851562 262.917969 238.730469 264.59375 C 237.609375 266.269531 236.410156 267.886719 235.128906 269.445312 C 233.847656 271 232.496094 272.492188 231.070312 273.917969 C 229.640625 275.34375 228.148438 276.695312 226.589844 277.972656 C 225.03125 279.253906 223.414062 280.453125 221.734375 281.570312 C 220.058594 282.691406 218.332031 283.726562 216.554688 284.679688 C 214.773438 285.628906 212.953125 286.492188 211.089844 287.261719 C 209.226562 288.035156 207.332031 288.714844 205.402344 289.300781 C 203.472656 289.886719 201.515625 290.378906 199.539062 290.773438 C 197.5625 291.167969 195.566406 291.464844 193.5625 291.664062 C 191.554688 291.863281 189.542969 291.964844 187.523438 291.96875 Z M 187.523438 291.96875 " fill-opacity="1" fill-rule="nonzero"/><path fill="#000000" d="M 87.96875 69.34375 L 287.078125 69.34375 C 287.773438 69.34375 288.460938 69.273438 289.140625 69.140625 C 289.824219 69.003906 290.484375 68.804688 291.125 68.539062 C 291.769531 68.273438 292.378906 67.945312 292.957031 67.5625 C 293.53125 67.175781 294.066406 66.738281 294.558594 66.246094 C 295.050781 65.757812 295.488281 65.222656 295.875 64.644531 C 296.257812 64.066406 296.585938 63.460938 296.851562 62.816406 C 297.117188 62.175781 297.316406 61.515625 297.453125 60.835938 C 297.589844 60.15625 297.65625 59.46875 297.65625 58.773438 C 297.65625 58.078125 297.589844 57.390625 297.453125 56.710938 C 297.316406 56.03125 297.117188 55.371094 296.851562 54.730469 C 296.585938 54.085938 296.257812 53.480469 295.875 52.902344 C 295.488281 52.324219 295.050781 51.789062 294.558594 51.300781 C 294.066406 50.808594 293.53125 50.371094 292.957031 49.984375 C 292.378906 49.601562 291.769531 49.273438 291.125 49.007812 C 290.484375 48.742188 289.824219 48.542969 289.140625 48.40625 C 288.460938 48.273438 287.773438 48.203125 287.078125 48.203125 L 87.96875 48.203125 C 87.277344 48.203125 86.589844 48.273438 85.90625 48.40625 C 85.226562 48.542969 84.5625 48.742188 83.921875 49.007812 C 83.28125 49.273438 82.671875 49.601562 82.09375 49.984375 C 81.515625 50.371094 80.980469 50.808594 80.492188 51.300781 C 80 51.789062 79.5625 52.324219 79.175781 52.902344 C 78.789062 53.480469 78.464844 54.085938 78.199219 54.730469 C 77.933594 55.371094 77.730469 56.03125 77.597656 56.710938 C 77.460938 57.390625 77.394531 58.078125 77.394531 58.773438 C 77.394531 59.46875 77.460938 60.15625 77.597656 60.835938 C 77.730469 61.515625 77.933594 62.175781 78.199219 62.816406 C 78.464844 63.460938 78.789062 64.066406 79.175781 64.644531 C 79.5625 65.222656 80 65.757812 80.492188 66.246094 C 80.980469 66.738281 81.515625 67.175781 82.09375 67.5625 C 82.671875 67.945312 83.28125 68.273438 83.921875 68.539062 C 84.5625 68.804688 85.226562 69.003906 85.90625 69.140625 C 86.589844 69.273438 87.277344 69.34375 87.96875 69.34375 Z M 87.96875 69.34375 " fill-opacity="1" fill-rule="nonzero"/><g clip-path="url(#id2)"><path fill="#000000" d="M 313.058594 75.148438 L 61.992188 75.148438 C 61.421875 75.152344 60.855469 75.207031 60.292969 75.320312 C 59.734375 75.433594 59.1875 75.601562 58.660156 75.820312 C 58.132812 76.039062 57.628906 76.308594 57.15625 76.625 C 56.679688 76.945312 56.238281 77.304688 55.835938 77.707031 C 55.429688 78.113281 55.070312 78.550781 54.75 79.027344 C 54.433594 79.5 54.164062 80.003906 53.945312 80.53125 C 53.726562 81.058594 53.558594 81.601562 53.445312 82.164062 C 53.332031 82.722656 53.277344 83.289062 53.273438 83.859375 L 53.273438 344.832031 C 53.277344 345.40625 53.332031 345.96875 53.445312 346.53125 C 53.558594 347.089844 53.726562 347.636719 53.945312 348.164062 C 54.164062 348.691406 54.433594 349.191406 54.75 349.667969 C 55.070312 350.140625 55.429688 350.582031 55.835938 350.984375 C 56.238281 351.390625 56.679688 351.75 57.15625 352.066406 C 57.628906 352.386719 58.132812 352.65625 58.660156 352.875 C 59.1875 353.09375 59.734375 353.257812 60.292969 353.371094 C 60.855469 353.484375 61.421875 353.542969 61.992188 353.542969 L 313.058594 353.542969 C 313.628906 353.542969 314.195312 353.484375 314.757812 353.371094 C 315.316406 353.257812 315.859375 353.09375 316.390625 352.875 C 316.917969 352.65625 317.417969 352.386719 317.894531 352.066406 C 318.371094 351.75 318.808594 351.390625 319.214844 350.984375 C 319.617188 350.582031 319.980469 350.140625 320.296875 349.667969 C 320.617188 349.191406 320.882812 348.691406 321.105469 348.164062 C 321.324219 347.636719 321.488281 347.089844 321.601562 346.53125 C 321.714844 345.96875 321.773438 345.40625 321.773438 344.832031 L 321.773438 83.859375 C 321.773438 83.289062 321.714844 82.722656 321.601562 82.164062 C 321.488281 81.601562 321.324219 81.058594 321.105469 80.53125 C 320.882812 80.003906 320.617188 79.5 320.296875 79.027344 C 319.980469 78.550781 319.617188 78.113281 319.214844 77.707031 C 318.808594 77.304688 318.371094 76.945312 317.894531 76.625 C 317.417969 76.308594 316.917969 76.039062 316.390625 75.820312 C 315.859375 75.601562 315.316406 75.433594 314.757812 75.320312 C 314.195312 75.207031 313.628906 75.152344 313.058594 75.148438 Z M 137.605469 105.347656 C 137.605469 104.773438 137.660156 104.207031 137.773438 103.648438 C 137.882812 103.085938 138.050781 102.542969 138.269531 102.011719 C 138.488281 101.484375 138.757812 100.984375 139.074219 100.507812 C 139.390625 100.03125 139.753906 99.589844 140.160156 99.1875 C 140.5625 98.78125 141.003906 98.421875 141.480469 98.105469 C 141.957031 97.785156 142.457031 97.519531 142.988281 97.300781 C 143.515625 97.082031 144.058594 96.914062 144.621094 96.804688 C 145.183594 96.691406 145.75 96.636719 146.324219 96.636719 L 158.429688 96.636719 C 159 96.636719 159.566406 96.691406 160.128906 96.804688 C 160.691406 96.914062 161.234375 97.082031 161.765625 97.300781 C 162.292969 97.519531 162.796875 97.785156 163.273438 98.105469 C 163.746094 98.421875 164.1875 98.78125 164.59375 99.1875 C 164.996094 99.589844 165.359375 100.03125 165.675781 100.507812 C 165.996094 100.984375 166.261719 101.484375 166.480469 102.011719 C 166.703125 102.542969 166.867188 103.085938 166.976562 103.648438 C 167.089844 104.207031 167.144531 104.773438 167.144531 105.347656 L 167.144531 117.425781 C 167.144531 117.996094 167.089844 118.5625 166.976562 119.125 C 166.867188 119.6875 166.703125 120.230469 166.480469 120.757812 C 166.261719 121.289062 165.996094 121.789062 165.675781 122.265625 C 165.359375 122.742188 164.996094 123.179688 164.59375 123.585938 C 164.1875 123.988281 163.746094 124.351562 163.273438 124.667969 C 162.796875 124.984375 162.292969 125.253906 161.765625 125.472656 C 161.234375 125.691406 160.691406 125.855469 160.128906 125.96875 C 159.566406 126.082031 159 126.136719 158.429688 126.136719 L 146.324219 126.136719 C 145.75 126.136719 145.183594 126.082031 144.621094 125.96875 C 144.058594 125.855469 143.515625 125.691406 142.988281 125.472656 C 142.457031 125.253906 141.957031 124.984375 141.480469 124.667969 C 141.003906 124.351562 140.5625 123.988281 140.160156 123.585938 C 139.753906 123.179688 139.390625 122.742188 139.074219 122.265625 C 138.757812 121.789062 138.488281 121.289062 138.269531 120.757812 C 138.050781 120.230469 137.882812 119.6875 137.773438 119.125 C 137.660156 118.5625 137.605469 117.996094 137.605469 117.425781 Z M 75.027344 117.425781 L 75.027344 105.332031 C 75.027344 104.761719 75.082031 104.195312 75.195312 103.632812 C 75.308594 103.070312 75.472656 102.527344 75.691406 102 C 75.910156 101.46875 76.179688 100.96875 76.496094 100.492188 C 76.816406 100.015625 77.175781 99.578125 77.582031 99.171875 C 77.984375 98.769531 78.425781 98.40625 78.902344 98.089844 C 79.378906 97.773438 79.878906 97.503906 80.410156 97.285156 C 80.9375 97.066406 81.484375 96.898438 82.042969 96.789062 C 82.605469 96.675781 83.171875 96.621094 83.746094 96.621094 L 114.152344 96.621094 C 114.722656 96.621094 115.292969 96.675781 115.851562 96.789062 C 116.414062 96.898438 116.960938 97.066406 117.488281 97.285156 C 118.015625 97.503906 118.519531 97.773438 118.996094 98.089844 C 119.472656 98.40625 119.910156 98.769531 120.316406 99.171875 C 120.722656 99.578125 121.082031 100.015625 121.398438 100.492188 C 121.71875 100.96875 121.988281 101.46875 122.207031 102 C 122.425781 102.527344 122.589844 103.070312 122.703125 103.632812 C 122.8125 104.195312 122.871094 104.761719 122.871094 105.332031 L 122.871094 117.425781 C 122.871094 117.996094 122.8125 118.5625 122.703125 119.125 C 122.589844 119.6875 122.425781 120.230469 122.207031 120.757812 C 121.988281 121.289062 121.71875 121.789062 121.398438 122.265625 C 121.082031 122.742188 120.722656 123.179688 120.316406 123.585938 C 119.910156 123.988281 119.472656 124.351562 118.996094 124.667969 C 118.519531 124.984375 118.015625 125.253906 117.488281 125.472656 C 116.960938 125.691406 116.414062 125.855469 115.851562 125.96875 C 115.292969 126.082031 114.722656 126.136719 114.152344 126.136719 L 83.746094 126.136719 C 83.171875 126.136719 82.605469 126.082031 82.042969 125.96875 C 81.484375 125.855469 80.9375 125.691406 80.410156 125.472656 C 79.878906 125.253906 79.378906 124.984375 78.902344 124.667969 C 78.425781 124.351562 77.984375 123.988281 77.582031 123.585938 C 77.175781 123.179688 76.816406 122.742188 76.496094 122.265625 C 76.179688 121.789062 75.910156 121.289062 75.691406 120.757812 C 75.472656 120.230469 75.308594 119.6875 75.195312 119.125 C 75.082031 118.5625 75.027344 117.996094 75.027344 117.425781 Z M 292.484375 242.539062 C 292.484375 243.113281 292.429688 243.679688 292.316406 244.238281 C 292.203125 244.800781 292.039062 245.34375 291.820312 245.875 C 291.601562 246.402344 291.332031 246.902344 291.015625 247.378906 C 290.695312 247.855469 290.335938 248.296875 289.929688 248.699219 C 289.527344 249.105469 289.085938 249.464844 288.609375 249.78125 C 288.132812 250.101562 287.632812 250.367188 287.101562 250.589844 C 286.574219 250.808594 286.027344 250.972656 285.46875 251.082031 C 284.90625 251.195312 284.339844 251.25 283.765625 251.25 L 272.054688 251.25 C 271.316406 251.257812 270.589844 251.160156 269.875 250.960938 C 269.460938 252.617188 269 254.257812 268.484375 255.882812 C 267.972656 257.511719 267.410156 259.121094 266.796875 260.714844 C 266.1875 262.308594 265.53125 263.882812 264.824219 265.4375 C 264.117188 266.988281 263.367188 268.519531 262.566406 270.03125 C 261.769531 271.539062 260.925781 273.019531 260.039062 274.476562 C 259.152344 275.933594 258.21875 277.363281 257.246094 278.765625 C 256.273438 280.167969 255.257812 281.539062 254.199219 282.878906 C 253.140625 284.21875 252.046875 285.527344 250.910156 286.800781 C 249.773438 288.074219 248.601562 289.3125 247.390625 290.515625 C 246.179688 291.71875 244.933594 292.882812 243.652344 294.011719 C 242.371094 295.140625 241.058594 296.226562 239.710938 297.277344 C 238.363281 298.324219 236.984375 299.332031 235.578125 300.300781 C 234.171875 301.265625 232.734375 302.1875 231.269531 303.066406 C 229.808594 303.945312 228.320312 304.78125 226.804688 305.570312 C 225.292969 306.359375 223.753906 307.101562 222.195312 307.796875 C 220.636719 308.496094 219.058594 309.144531 217.460938 309.746094 C 215.863281 310.347656 214.25 310.898438 212.617188 311.402344 C 210.984375 311.90625 209.339844 312.363281 207.679688 312.765625 C 206.023438 313.171875 204.351562 313.527344 202.671875 313.828125 C 200.992188 314.132812 199.304688 314.386719 197.609375 314.589844 C 195.914062 314.792969 194.214844 314.941406 192.507812 315.042969 C 190.804688 315.140625 189.097656 315.191406 187.390625 315.1875 C 185.683594 315.183594 183.976562 315.128906 182.273438 315.023438 C 180.570312 314.917969 178.871094 314.761719 177.175781 314.550781 C 175.480469 314.34375 173.792969 314.085938 172.113281 313.773438 C 170.433594 313.464844 168.765625 313.101562 167.109375 312.691406 C 165.453125 312.28125 163.808594 311.820312 162.179688 311.3125 C 160.550781 310.800781 158.9375 310.242188 157.339844 309.636719 C 155.746094 309.027344 154.167969 308.371094 152.613281 307.671875 C 151.058594 306.96875 149.523438 306.21875 148.011719 305.425781 C 146.5 304.628906 145.015625 303.789062 143.554688 302.90625 C 142.09375 302.019531 140.664062 301.09375 139.257812 300.121094 C 137.855469 299.152344 136.480469 298.140625 135.136719 297.085938 C 133.792969 296.03125 132.484375 294.9375 131.207031 293.804688 C 129.929688 292.671875 128.6875 291.503906 127.484375 290.296875 C 126.277344 289.089844 125.105469 287.84375 123.976562 286.566406 C 122.84375 285.289062 121.753906 283.976562 120.703125 282.632812 C 119.648438 281.289062 118.636719 279.914062 117.667969 278.511719 C 116.699219 277.105469 115.773438 275.671875 114.890625 274.210938 C 114.011719 272.75 113.171875 271.265625 112.378906 269.753906 C 111.585938 268.242188 110.839844 266.710938 110.140625 265.152344 C 109.441406 263.597656 108.789062 262.019531 108.183594 260.425781 C 107.578125 258.828125 107.023438 257.21875 106.515625 255.589844 C 106.007812 253.960938 105.550781 252.316406 105.140625 250.660156 C 104.734375 249.003906 104.375 247.335938 104.066406 245.65625 C 103.761719 243.976562 103.503906 242.292969 103.296875 240.597656 C 103.09375 238.90625 102.9375 237.207031 102.835938 235.503906 C 102.734375 233.800781 102.679688 232.09375 102.679688 230.390625 C 102.679688 228.683594 102.734375 226.976562 102.835938 225.273438 C 102.9375 223.570312 103.09375 221.875 103.296875 220.179688 C 103.503906 218.484375 103.761719 216.800781 104.066406 215.121094 C 104.375 213.441406 104.734375 211.773438 105.140625 210.117188 C 105.550781 208.460938 106.007812 206.820312 106.515625 205.191406 C 107.023438 203.558594 107.578125 201.949219 108.183594 200.351562 C 108.789062 198.757812 109.441406 197.179688 110.140625 195.625 C 110.839844 194.066406 111.585938 192.535156 112.378906 191.023438 C 113.171875 189.511719 114.011719 188.027344 114.890625 186.566406 C 115.773438 185.105469 116.699219 183.671875 117.667969 182.265625 C 118.636719 180.863281 119.648438 179.488281 120.703125 178.144531 C 121.753906 176.800781 122.84375 175.488281 123.976562 174.210938 C 125.105469 172.933594 126.277344 171.691406 127.484375 170.480469 C 128.6875 169.273438 129.929688 168.105469 131.207031 166.972656 C 132.484375 165.839844 133.792969 164.746094 135.136719 163.691406 C 136.480469 162.636719 137.855469 161.625 139.257812 160.65625 C 140.664062 159.683594 142.09375 158.757812 143.554688 157.871094 C 145.015625 156.988281 146.5 156.148438 148.011719 155.351562 C 149.523438 154.558594 151.058594 153.808594 152.613281 153.109375 C 154.167969 152.40625 155.746094 151.75 157.339844 151.144531 C 158.9375 150.535156 160.550781 149.976562 162.179688 149.46875 C 163.808594 148.957031 165.453125 148.496094 167.109375 148.085938 C 168.765625 147.675781 170.433594 147.3125 172.113281 147.003906 C 173.792969 146.695312 175.480469 146.433594 177.175781 146.226562 C 178.871094 146.015625 180.570312 145.859375 182.273438 145.753906 C 183.976562 145.648438 185.683594 145.59375 187.390625 145.589844 C 189.097656 145.585938 190.804688 145.636719 192.507812 145.734375 C 194.214844 145.835938 195.914062 145.984375 197.609375 146.1875 C 199.304688 146.390625 200.992188 146.644531 202.671875 146.949219 C 204.351562 147.253906 206.023438 147.605469 207.679688 148.011719 C 209.339844 148.417969 210.984375 148.871094 212.617188 149.375 C 214.25 149.878906 215.863281 150.433594 217.460938 151.03125 C 219.058594 151.632812 220.636719 152.285156 222.195312 152.980469 C 223.753906 153.675781 225.292969 154.417969 226.804688 155.210938 C 228.320312 156 229.808594 156.832031 231.269531 157.710938 C 232.734375 158.589844 234.171875 159.511719 235.578125 160.480469 C 236.984375 161.445312 238.363281 162.453125 239.710938 163.5 C 241.058594 164.550781 242.371094 165.636719 243.652344 166.765625 C 244.933594 167.894531 246.179688 169.058594 247.390625 170.261719 C 248.601562 171.464844 249.773438 172.703125 250.910156 173.976562 C 252.046875 175.253906 253.140625 176.558594 254.199219 177.898438 C 255.257812 179.238281 256.273438 180.609375 257.246094 182.011719 C 258.21875 183.414062 259.152344 184.84375 260.039062 186.300781 C 260.925781 187.757812 261.769531 189.242188 262.566406 190.75 C 263.367188 192.257812 264.117188 193.789062 264.824219 195.339844 C 265.53125 196.894531 266.1875 198.46875 266.796875 200.0625 C 267.410156 201.65625 267.972656 203.265625 268.484375 204.894531 C 269 206.519531 269.460938 208.160156 269.875 209.816406 C 270.589844 209.617188 271.316406 209.519531 272.054688 209.527344 L 283.765625 209.527344 C 284.339844 209.527344 284.90625 209.582031 285.46875 209.695312 C 286.027344 209.804688 286.574219 209.972656 287.101562 210.191406 C 287.632812 210.410156 288.132812 210.675781 288.609375 210.996094 C 289.085938 211.3125 289.527344 211.671875 289.929688 212.078125 C 290.335938 212.484375 290.695312 212.921875 291.015625 213.398438 C 291.332031 213.875 291.601562 214.375 291.820312 214.902344 C 292.039062 215.433594 292.203125 215.976562 292.316406 216.539062 C 292.429688 217.097656 292.484375 217.664062 292.484375 218.238281 Z M 292.484375 242.539062 " fill-opacity="1" fill-rule="nonzero"/></g><path fill="#000000" d="M 283.765625 215.332031 L 272.054688 215.332031 C 271.714844 215.332031 271.386719 215.390625 271.066406 215.507812 C 271.957031 220.425781 272.40625 225.390625 272.40625 230.402344 C 272.261719 235.394531 271.816406 240.359375 271.066406 245.296875 C 271.390625 245.390625 271.71875 245.441406 272.054688 245.445312 L 283.765625 245.445312 C 284.152344 245.449219 284.523438 245.375 284.882812 245.230469 C 285.242188 245.085938 285.554688 244.875 285.828125 244.601562 C 286.101562 244.328125 286.3125 244.015625 286.457031 243.65625 C 286.605469 243.296875 286.675781 242.925781 286.671875 242.539062 L 286.671875 218.238281 C 286.671875 217.851562 286.597656 217.480469 286.449219 217.125 C 286.304688 216.769531 286.09375 216.457031 285.820312 216.183594 C 285.546875 215.910156 285.234375 215.703125 284.878906 215.554688 C 284.523438 215.40625 284.152344 215.332031 283.765625 215.332031 Z M 283.765625 215.332031 " fill-opacity="1" fill-rule="nonzero"/></svg>