<svg xmlns="http://www.w3.org/2000/svg" xmlns:xlink="http://www.w3.org/1999/xlink" width="500" zoomAndPan="magnify" viewBox="0 0 375 374.999991" height="500" preserveAspectRatio="xMidYMid meet" version="1.0"><defs><clipPath id="id1"><path d="M 161 115.613281 L 215 115.613281 L 215 121 L 161 121 Z M 161 115.613281 " clip-rule="nonzero"/></clipPath><clipPath id="id2"><path d="M 155.421875 128 L 219.921875 128 L 219.921875 195.113281 L 155.421875 195.113281 Z M 155.421875 128 " clip-rule="nonzero"/></clipPath></defs><rect x="-37.5" width="450" fill="#ffffff" y="-37.499999" height="449.999989" fill-opacity="1"/><rect x="-37.5" width="450" fill="#ffffff" y="-37.499999" height="449.999989" fill-opacity="1"/><rect x="-37.5" width="450" fill="#ffffff" y="-37.499999" height="449.999989" fill-opacity="1"/><rect x="-37.5" width="450" fill="#ffffff" y="-37.499999" height="449.999989" fill-opacity="1"/><path fill="#000000" d="M 187.671875 152.304688 C 186.789062 152.304688 185.917969 152.390625 185.054688 152.5625 C 184.191406 152.730469 183.351562 152.984375 182.539062 153.320312 C 181.726562 153.65625 180.953125 154.066406 180.21875 154.554688 C 179.488281 155.039062 178.8125 155.59375 178.1875 156.210938 C 177.566406 156.832031 177.007812 157.507812 176.519531 158.234375 C 176.03125 158.964844 175.617188 159.730469 175.28125 160.542969 C 174.945312 161.351562 174.6875 162.1875 174.519531 163.046875 C 174.347656 163.90625 174.261719 164.773438 174.261719 165.648438 C 174.261719 166.523438 174.34375 167.390625 174.515625 168.25 C 174.6875 169.109375 174.941406 169.945312 175.28125 170.753906 C 175.617188 171.5625 176.03125 172.332031 176.519531 173.0625 C 177.007812 173.789062 177.5625 174.464844 178.1875 175.082031 C 178.808594 175.703125 179.484375 176.257812 180.21875 176.742188 C 180.949219 177.230469 181.722656 177.640625 182.535156 177.976562 C 183.347656 178.3125 184.1875 178.566406 185.050781 178.734375 C 185.914062 178.90625 186.785156 178.992188 187.667969 178.992188 C 188.546875 178.992188 189.417969 178.90625 190.28125 178.734375 C 191.144531 178.566406 191.984375 178.3125 192.796875 177.976562 C 193.609375 177.640625 194.382812 177.230469 195.113281 176.742188 C 195.847656 176.257812 196.523438 175.703125 197.148438 175.085938 C 197.769531 174.464844 198.324219 173.789062 198.8125 173.0625 C 199.304688 172.332031 199.714844 171.566406 200.054688 170.753906 C 200.390625 169.945312 200.644531 169.109375 200.816406 168.25 C 200.988281 167.390625 201.074219 166.523438 201.074219 165.648438 C 201.074219 164.773438 200.984375 163.90625 200.8125 163.046875 C 200.640625 162.1875 200.386719 161.355469 200.050781 160.546875 C 199.710938 159.738281 199.300781 158.96875 198.808594 158.238281 C 198.320312 157.511719 197.765625 156.839844 197.144531 156.21875 C 196.523438 155.597656 195.84375 155.046875 195.113281 154.558594 C 194.382812 154.074219 193.609375 153.660156 192.796875 153.324219 C 191.984375 152.988281 191.148438 152.734375 190.285156 152.5625 C 189.421875 152.394531 188.550781 152.304688 187.671875 152.304688 Z M 187.671875 152.304688 " fill-opacity="1" fill-rule="nonzero"/><path fill="#000000" d="M 162.742188 135.03125 L 170.046875 135.03125 C 170.238281 135.03125 170.402344 135.097656 170.539062 135.234375 C 170.675781 135.367188 170.742188 135.53125 170.742188 135.722656 L 170.742188 138.621094 C 170.742188 138.8125 170.675781 138.976562 170.539062 139.109375 C 170.402344 139.246094 170.238281 139.3125 170.046875 139.3125 L 162.742188 139.3125 C 162.546875 139.3125 162.382812 139.246094 162.246094 139.109375 C 162.109375 138.976562 162.042969 138.8125 162.042969 138.621094 L 162.042969 135.722656 C 162.042969 135.53125 162.109375 135.367188 162.246094 135.234375 C 162.382812 135.097656 162.546875 135.03125 162.742188 135.03125 Z M 162.742188 135.03125 " fill-opacity="1" fill-rule="nonzero"/><path fill="#000000" d="M 177.773438 135.03125 L 180.679688 135.03125 C 180.875 135.03125 181.039062 135.097656 181.175781 135.234375 C 181.3125 135.367188 181.378906 135.53125 181.378906 135.722656 L 181.378906 138.621094 C 181.378906 138.8125 181.3125 138.976562 181.175781 139.109375 C 181.039062 139.246094 180.875 139.3125 180.679688 139.3125 L 177.773438 139.3125 C 177.582031 139.3125 177.414062 139.246094 177.28125 139.109375 C 177.144531 138.976562 177.074219 138.8125 177.074219 138.621094 L 177.074219 135.722656 C 177.074219 135.53125 177.144531 135.367188 177.28125 135.234375 C 177.414062 135.097656 177.582031 135.03125 177.773438 135.03125 Z M 177.773438 135.03125 " fill-opacity="1" fill-rule="nonzero"/><g clip-path="url(#id1)"><path fill="#000000" d="M 163.753906 120.664062 L 211.585938 120.664062 C 211.921875 120.664062 212.246094 120.601562 212.558594 120.472656 C 212.871094 120.34375 213.144531 120.160156 213.382812 119.925781 C 213.621094 119.6875 213.804688 119.414062 213.933594 119.105469 C 214.0625 118.792969 214.128906 118.472656 214.128906 118.136719 C 214.128906 117.800781 214.0625 117.480469 213.933594 117.167969 C 213.804688 116.859375 213.621094 116.585938 213.382812 116.347656 C 213.144531 116.109375 212.871094 115.929688 212.558594 115.800781 C 212.246094 115.671875 211.921875 115.609375 211.585938 115.609375 L 163.753906 115.609375 C 163.417969 115.609375 163.09375 115.671875 162.785156 115.800781 C 162.472656 115.929688 162.195312 116.109375 161.957031 116.347656 C 161.71875 116.585938 161.535156 116.859375 161.40625 117.167969 C 161.277344 117.480469 161.214844 117.800781 161.214844 118.136719 C 161.214844 118.472656 161.277344 118.792969 161.40625 119.105469 C 161.535156 119.414062 161.71875 119.6875 161.957031 119.925781 C 162.195312 120.160156 162.472656 120.34375 162.785156 120.472656 C 163.09375 120.601562 163.417969 120.664062 163.753906 120.664062 Z M 163.753906 120.664062 " fill-opacity="1" fill-rule="nonzero"/></g><path fill="#000000" d="M 206.238281 161.675781 C 206.078125 160.925781 205.867188 160.183594 205.613281 159.457031 C 205.359375 158.730469 205.0625 158.019531 204.722656 157.328125 C 204.382812 156.636719 204 155.96875 203.578125 155.324219 C 203.15625 154.679688 202.695312 154.066406 202.195312 153.476562 C 201.695312 152.886719 201.164062 152.332031 200.597656 151.808594 C 200.03125 151.285156 199.433594 150.796875 198.808594 150.34375 C 198.179688 149.894531 197.527344 149.480469 196.851562 149.109375 C 196.175781 148.738281 195.476562 148.40625 194.757812 148.121094 C 194.042969 147.832031 193.308594 147.589844 192.5625 147.394531 C 191.8125 147.195312 191.058594 147.042969 190.292969 146.9375 C 189.523438 146.832031 188.753906 146.773438 187.980469 146.757812 C 187.207031 146.746094 186.4375 146.78125 185.667969 146.863281 C 184.898438 146.945312 184.136719 147.074219 183.382812 147.246094 C 182.628906 147.421875 181.890625 147.640625 181.164062 147.902344 C 180.4375 148.167969 179.730469 148.476562 179.039062 148.824219 C 178.351562 149.175781 177.6875 149.566406 177.046875 149.996094 C 176.40625 150.429688 175.792969 150.898438 175.210938 151.402344 C 174.625 151.90625 174.074219 152.445312 173.558594 153.019531 C 173.042969 153.589844 172.5625 154.191406 172.117188 154.824219 C 171.675781 155.453125 171.273438 156.109375 170.910156 156.789062 C 170.546875 157.46875 170.226562 158.167969 169.949219 158.886719 C 169.671875 159.605469 169.441406 160.339844 169.253906 161.085938 C 169.066406 161.832031 168.925781 162.589844 168.832031 163.355469 C 168.738281 164.117188 168.691406 164.886719 168.691406 165.65625 C 168.691406 166.425781 168.738281 167.191406 168.832031 167.957031 C 168.925781 168.71875 169.066406 169.476562 169.253906 170.222656 C 169.441406 170.96875 169.671875 171.703125 169.949219 172.421875 C 170.226562 173.140625 170.546875 173.839844 170.910156 174.519531 C 171.273438 175.199219 171.675781 175.855469 172.117188 176.484375 C 172.5625 177.117188 173.042969 177.71875 173.558594 178.289062 C 174.074219 178.863281 174.625 179.402344 175.210938 179.90625 C 175.792969 180.414062 176.40625 180.882812 177.046875 181.3125 C 177.6875 181.742188 178.351562 182.132812 179.039062 182.484375 C 179.730469 182.835938 180.4375 183.140625 181.164062 183.40625 C 181.890625 183.667969 182.628906 183.886719 183.382812 184.0625 C 184.136719 184.238281 184.898438 184.363281 185.667969 184.445312 C 186.4375 184.527344 187.207031 184.5625 187.980469 184.550781 C 188.753906 184.539062 189.523438 184.476562 190.292969 184.371094 C 191.058594 184.265625 191.8125 184.113281 192.5625 183.917969 C 193.308594 183.71875 194.042969 183.476562 194.757812 183.1875 C 195.476562 182.902344 196.175781 182.570312 196.851562 182.199219 C 197.527344 181.828125 198.179688 181.417969 198.808594 180.964844 C 199.433594 180.511719 200.03125 180.027344 200.597656 179.503906 C 201.164062 178.976562 201.695312 178.421875 202.195312 177.832031 C 202.695312 177.246094 203.15625 176.628906 203.578125 175.984375 C 204 175.339844 204.382812 174.671875 204.722656 173.980469 C 205.0625 173.289062 205.359375 172.578125 205.613281 171.851562 C 205.867188 171.125 206.078125 170.382812 206.238281 169.632812 C 206.507812 168.320312 206.652344 166.992188 206.664062 165.652344 C 206.667969 164.3125 206.527344 162.984375 206.238281 161.675781 Z M 187.671875 180.382812 C 186.699219 180.382812 185.734375 180.289062 184.78125 180.097656 C 183.828125 179.910156 182.902344 179.632812 182.007812 179.261719 C 181.109375 178.890625 180.253906 178.4375 179.445312 177.898438 C 178.636719 177.363281 177.890625 176.75 177.203125 176.066406 C 176.515625 175.382812 175.902344 174.640625 175.363281 173.835938 C 174.820312 173.03125 174.367188 172.179688 173.996094 171.289062 C 173.621094 170.394531 173.339844 169.472656 173.152344 168.523438 C 172.960938 167.574219 172.867188 166.617188 172.867188 165.648438 C 172.867188 164.683594 172.960938 163.722656 173.152344 162.773438 C 173.339844 161.824219 173.621094 160.90625 173.992188 160.011719 C 174.367188 159.117188 174.820312 158.269531 175.363281 157.464844 C 175.902344 156.660156 176.515625 155.914062 177.203125 155.230469 C 177.890625 154.546875 178.636719 153.9375 179.445312 153.398438 C 180.253906 152.863281 181.105469 152.40625 182.003906 152.039062 C 182.902344 151.667969 183.828125 151.386719 184.78125 151.199219 C 185.734375 151.011719 186.699219 150.917969 187.671875 150.917969 C 188.640625 150.917969 189.605469 151.011719 190.558594 151.199219 C 191.511719 151.386719 192.4375 151.667969 193.335938 152.039062 C 194.234375 152.410156 195.085938 152.863281 195.894531 153.402344 C 196.703125 153.9375 197.453125 154.550781 198.140625 155.234375 C 198.828125 155.917969 199.441406 156.664062 199.980469 157.46875 C 200.519531 158.269531 200.976562 159.121094 201.347656 160.015625 C 201.71875 160.910156 202 161.828125 202.1875 162.777344 C 202.378906 163.726562 202.472656 164.6875 202.472656 165.652344 C 202.472656 166.621094 202.375 167.578125 202.183594 168.527344 C 201.996094 169.472656 201.714844 170.394531 201.339844 171.289062 C 200.96875 172.179688 200.511719 173.027344 199.972656 173.832031 C 199.433594 174.636719 198.816406 175.378906 198.132812 176.0625 C 197.445312 176.746094 196.695312 177.355469 195.890625 177.894531 C 195.082031 178.433594 194.230469 178.886719 193.332031 179.257812 C 192.433594 179.625 191.507812 179.90625 190.558594 180.097656 C 189.605469 180.285156 188.640625 180.382812 187.671875 180.382812 Z M 187.671875 180.382812 " fill-opacity="1" fill-rule="nonzero"/><path fill="#000000" d="M 163.753906 127.113281 L 211.585938 127.113281 C 211.921875 127.113281 212.246094 127.046875 212.558594 126.921875 C 212.871094 126.792969 213.144531 126.609375 213.382812 126.371094 C 213.621094 126.136719 213.804688 125.863281 213.933594 125.550781 C 214.0625 125.242188 214.128906 124.917969 214.128906 124.582031 C 214.128906 124.25 214.0625 123.925781 213.933594 123.617188 C 213.804688 123.304688 213.621094 123.03125 213.382812 122.796875 C 213.144531 122.558594 212.871094 122.375 212.558594 122.246094 C 212.246094 122.121094 211.921875 122.054688 211.585938 122.054688 L 163.753906 122.054688 C 163.417969 122.054688 163.09375 122.121094 162.785156 122.246094 C 162.472656 122.375 162.195312 122.558594 161.957031 122.796875 C 161.71875 123.03125 161.535156 123.304688 161.40625 123.617188 C 161.277344 123.925781 161.214844 124.25 161.214844 124.582031 C 161.214844 124.917969 161.277344 125.242188 161.40625 125.550781 C 161.535156 125.863281 161.71875 126.136719 161.957031 126.371094 C 162.195312 126.609375 162.472656 126.792969 162.785156 126.921875 C 163.09375 127.046875 163.417969 127.113281 163.753906 127.113281 Z M 163.753906 127.113281 " fill-opacity="1" fill-rule="nonzero"/><g clip-path="url(#id2)"><path fill="#000000" d="M 217.828125 128.503906 L 157.515625 128.503906 C 157.238281 128.503906 156.972656 128.558594 156.714844 128.664062 C 156.457031 128.769531 156.230469 128.917969 156.035156 129.113281 C 155.839844 129.308594 155.6875 129.535156 155.582031 129.789062 C 155.476562 130.046875 155.421875 130.3125 155.421875 130.585938 L 155.421875 193.03125 C 155.421875 193.308594 155.476562 193.574219 155.582031 193.828125 C 155.6875 194.082031 155.839844 194.308594 156.035156 194.503906 C 156.230469 194.699219 156.457031 194.847656 156.714844 194.957031 C 156.972656 195.0625 157.238281 195.113281 157.515625 195.117188 L 217.828125 195.117188 C 218.105469 195.113281 218.371094 195.0625 218.628906 194.957031 C 218.882812 194.847656 219.109375 194.699219 219.304688 194.503906 C 219.5 194.308594 219.652344 194.082031 219.761719 193.828125 C 219.867188 193.574219 219.921875 193.308594 219.921875 193.03125 L 219.921875 130.585938 C 219.921875 130.3125 219.867188 130.046875 219.761719 129.789062 C 219.652344 129.535156 219.5 129.308594 219.304688 129.113281 C 219.109375 128.917969 218.882812 128.769531 218.628906 128.664062 C 218.371094 128.558594 218.105469 128.503906 217.828125 128.503906 Z M 175.679688 135.726562 C 175.679688 135.453125 175.730469 135.1875 175.839844 134.929688 C 175.945312 134.675781 176.097656 134.449219 176.292969 134.253906 C 176.488281 134.058594 176.714844 133.90625 176.972656 133.800781 C 177.226562 133.695312 177.496094 133.644531 177.773438 133.644531 L 180.679688 133.644531 C 180.957031 133.644531 181.226562 133.695312 181.484375 133.800781 C 181.738281 133.90625 181.964844 134.058594 182.160156 134.253906 C 182.359375 134.449219 182.507812 134.675781 182.617188 134.929688 C 182.722656 135.1875 182.777344 135.453125 182.777344 135.726562 L 182.777344 138.617188 C 182.777344 138.894531 182.722656 139.160156 182.617188 139.414062 C 182.507812 139.671875 182.359375 139.894531 182.160156 140.09375 C 181.964844 140.289062 181.738281 140.4375 181.484375 140.542969 C 181.226562 140.648438 180.957031 140.703125 180.679688 140.703125 L 177.773438 140.703125 C 177.496094 140.703125 177.226562 140.648438 176.972656 140.542969 C 176.714844 140.4375 176.488281 140.289062 176.292969 140.09375 C 176.097656 139.894531 175.945312 139.671875 175.839844 139.414062 C 175.730469 139.160156 175.679688 138.894531 175.679688 138.617188 Z M 160.644531 138.617188 L 160.644531 135.722656 C 160.644531 135.449219 160.699219 135.183594 160.804688 134.925781 C 160.914062 134.671875 161.0625 134.445312 161.261719 134.25 C 161.457031 134.054688 161.683594 133.90625 161.9375 133.796875 C 162.195312 133.691406 162.464844 133.640625 162.742188 133.640625 L 170.046875 133.640625 C 170.324219 133.640625 170.589844 133.691406 170.847656 133.796875 C 171.101562 133.90625 171.328125 134.054688 171.527344 134.25 C 171.722656 134.445312 171.875 134.671875 171.980469 134.925781 C 172.085938 135.183594 172.140625 135.449219 172.140625 135.722656 L 172.140625 138.617188 C 172.140625 138.894531 172.085938 139.160156 171.980469 139.414062 C 171.875 139.671875 171.722656 139.894531 171.527344 140.09375 C 171.328125 140.289062 171.101562 140.4375 170.847656 140.542969 C 170.589844 140.648438 170.324219 140.703125 170.046875 140.703125 L 162.742188 140.703125 C 162.464844 140.703125 162.195312 140.648438 161.9375 140.542969 C 161.683594 140.4375 161.457031 140.289062 161.261719 140.09375 C 161.0625 139.894531 160.914062 139.671875 160.804688 139.414062 C 160.699219 139.160156 160.644531 138.894531 160.644531 138.617188 Z M 212.882812 168.554688 C 212.882812 168.832031 212.832031 169.097656 212.726562 169.351562 C 212.617188 169.609375 212.46875 169.832031 212.269531 170.027344 C 212.074219 170.222656 211.847656 170.375 211.589844 170.480469 C 211.335938 170.585938 211.066406 170.640625 210.789062 170.640625 L 207.976562 170.640625 C 207.800781 170.640625 207.625 170.617188 207.453125 170.570312 C 207.253906 171.363281 207.007812 172.140625 206.714844 172.902344 C 206.421875 173.667969 206.082031 174.410156 205.699219 175.132812 C 205.3125 175.855469 204.886719 176.550781 204.417969 177.222656 C 203.949219 177.894531 203.445312 178.535156 202.898438 179.144531 C 202.351562 179.753906 201.769531 180.332031 201.152344 180.871094 C 200.539062 181.410156 199.890625 181.914062 199.214844 182.375 C 198.539062 182.839844 197.835938 183.257812 197.105469 183.636719 C 196.378906 184.015625 195.628906 184.347656 194.863281 184.636719 C 194.09375 184.925781 193.3125 185.164062 192.511719 185.359375 C 191.714844 185.550781 190.910156 185.699219 190.09375 185.796875 C 189.277344 185.890625 188.460938 185.941406 187.640625 185.9375 C 186.816406 185.9375 186 185.886719 185.183594 185.785156 C 184.371094 185.6875 183.5625 185.539062 182.765625 185.339844 C 181.96875 185.144531 181.1875 184.898438 180.421875 184.609375 C 179.652344 184.320312 178.90625 183.984375 178.179688 183.601562 C 177.453125 183.222656 176.75 182.796875 176.078125 182.332031 C 175.402344 181.867188 174.757812 181.363281 174.140625 180.820312 C 173.527344 180.28125 172.949219 179.703125 172.40625 179.089844 C 171.859375 178.476562 171.355469 177.835938 170.890625 177.164062 C 170.425781 176.488281 170 175.789062 169.621094 175.066406 C 169.238281 174.34375 168.902344 173.597656 168.609375 172.835938 C 168.320312 172.070312 168.078125 171.292969 167.878906 170.496094 C 167.683594 169.703125 167.535156 168.902344 167.4375 168.089844 C 167.339844 167.277344 167.289062 166.464844 167.289062 165.648438 C 167.289062 164.832031 167.339844 164.015625 167.4375 163.203125 C 167.535156 162.394531 167.683594 161.589844 167.878906 160.796875 C 168.078125 160.003906 168.320312 159.226562 168.609375 158.460938 C 168.902344 157.695312 169.238281 156.953125 169.621094 156.226562 C 170 155.503906 170.425781 154.804688 170.890625 154.132812 C 171.355469 153.460938 171.859375 152.816406 172.40625 152.207031 C 172.949219 151.59375 173.527344 151.015625 174.140625 150.472656 C 174.757812 149.929688 175.402344 149.425781 176.078125 148.960938 C 176.75 148.496094 177.453125 148.074219 178.179688 147.695312 C 178.90625 147.3125 179.652344 146.976562 180.421875 146.6875 C 181.1875 146.394531 181.96875 146.152344 182.765625 145.953125 C 183.5625 145.757812 184.371094 145.609375 185.183594 145.507812 C 186 145.410156 186.816406 145.359375 187.640625 145.355469 C 188.460938 145.355469 189.277344 145.402344 190.09375 145.5 C 190.910156 145.597656 191.714844 145.742188 192.511719 145.9375 C 193.3125 146.128906 194.09375 146.371094 194.863281 146.660156 C 195.628906 146.949219 196.378906 147.28125 197.105469 147.660156 C 197.835938 148.035156 198.539062 148.457031 199.214844 148.917969 C 199.890625 149.382812 200.539062 149.882812 201.152344 150.425781 C 201.769531 150.964844 202.351562 151.539062 202.898438 152.148438 C 203.445312 152.761719 203.949219 153.402344 204.417969 154.070312 C 204.886719 154.742188 205.3125 155.441406 205.699219 156.164062 C 206.082031 156.886719 206.421875 157.628906 206.714844 158.390625 C 207.007812 159.15625 207.253906 159.933594 207.453125 160.726562 C 207.625 160.675781 207.800781 160.652344 207.976562 160.65625 L 210.789062 160.65625 C 211.066406 160.65625 211.335938 160.707031 211.589844 160.816406 C 211.847656 160.921875 212.074219 161.070312 212.269531 161.265625 C 212.46875 161.460938 212.617188 161.6875 212.726562 161.941406 C 212.832031 162.199219 212.882812 162.464844 212.882812 162.738281 Z M 212.882812 168.554688 " fill-opacity="1" fill-rule="nonzero"/></g><path fill="#000000" d="M 210.789062 162.046875 L 207.976562 162.046875 C 207.894531 162.046875 207.816406 162.058594 207.738281 162.085938 C 207.953125 163.261719 208.0625 164.453125 208.0625 165.652344 C 208.027344 166.847656 207.917969 168.035156 207.738281 169.214844 C 207.816406 169.238281 207.894531 169.25 207.976562 169.25 L 210.789062 169.25 C 210.984375 169.253906 211.148438 169.183594 211.285156 169.046875 C 211.421875 168.914062 211.492188 168.746094 211.488281 168.554688 L 211.488281 162.738281 C 211.488281 162.546875 211.421875 162.382812 211.285156 162.25 C 211.148438 162.113281 210.984375 162.046875 210.789062 162.046875 Z M 210.789062 162.046875 " fill-opacity="1" fill-rule="nonzero"/></svg>